<svg width="161" height="160" viewBox="0 0 161 160" fill="none" xmlns="http://www.w3.org/2000/svg">
<g clip-path="url(#clip0_1103_2355)">
<mask id="mask0_1103_2355" style="mask-type:luminance" maskUnits="userSpaceOnUse" x="0" y="0" width="161" height="160">
<path d="M160.5 0H0.5V160H160.5V0Z" fill="white"/>
</mask>
<g mask="url(#mask0_1103_2355)">
<path d="M80.4993 37.3334C109.934 37.3334 133.833 61.232 133.833 90.6667C133.833 120.101 109.934 144 80.4993 144C51.0647 144 27.166 120.101 27.166 90.6667C27.166 61.232 51.0647 37.3334 80.4993 37.3334Z" fill="black"/>
<path d="M80.4993 26.6667C109.934 26.6667 133.833 50.5654 133.833 80C133.833 109.435 109.934 133.333 80.4993 133.333C51.0647 133.333 27.166 109.435 27.166 80C27.166 50.5654 51.0647 26.6667 80.4993 26.6667Z" fill="#FCEEBB"/>
<path d="M80.4993 26.6667C109.934 26.6667 133.833 50.5654 133.833 80C133.833 109.435 109.934 133.333 80.4993 133.333C51.0647 133.333 27.166 109.435 27.166 80C27.166 50.5654 51.0647 26.6667 80.4993 26.6667Z" fill="#FCEEBB" stroke="black" stroke-width="1.5"/>
<path d="M80.4987 37.3334C104.046 37.3334 123.165 56.4523 123.165 80C123.165 103.548 104.046 122.667 80.4987 122.667C56.951 122.667 37.832 103.548 37.832 80C37.832 56.4523 56.951 37.3334 80.4987 37.3334Z" fill="#FFCB06"/>
<path d="M80.4987 37.3334C104.046 37.3334 123.165 56.4523 123.165 80C123.165 103.548 104.046 122.667 80.4987 122.667C56.951 122.667 37.832 103.548 37.832 80C37.832 56.4523 56.951 37.3334 80.4987 37.3334Z" fill="#FFCB06" stroke="black" stroke-width="1.5"/>
<path d="M101.634 63.954C103.309 65.6116 103.323 68.3132 101.666 69.9883L75.9113 96.015C75.1101 96.8248 74.0178 97.2805 72.8786 97.2805C71.739 97.2805 70.6471 96.8248 69.8459 96.015L59.3336 85.3918C57.676 83.7167 57.6901 81.0151 59.3652 79.3575C61.0403 77.6999 63.7415 77.7144 65.3991 79.3891L72.8786 86.9479L95.6003 63.9855C97.2579 62.3109 99.9591 62.2964 101.634 63.954Z" stroke="black" stroke-width="3.2" stroke-linecap="round" stroke-linejoin="round"/>
<path d="M101.634 63.954C103.309 65.6116 103.323 68.3132 101.666 69.9883L75.9113 96.015C75.1101 96.8248 74.0178 97.2805 72.8786 97.2805C71.739 97.2805 70.6471 96.8248 69.8459 96.015L59.3336 85.3918C57.676 83.7167 57.6901 81.0151 59.3652 79.3575C61.0403 77.6999 63.7415 77.7144 65.3991 79.3891L72.8786 86.9479L95.6003 63.9855C97.2579 62.3109 99.9591 62.2964 101.634 63.954Z" fill="white"/>
</g>
<path d="M122.825 84.395C123.349 83.1957 125.051 83.1957 125.575 84.395L129.266 92.8441C129.518 93.4212 129.979 93.8819 130.556 94.1341L139.005 97.8255C140.204 98.3494 140.204 100.051 139.005 100.575L130.556 104.266C129.979 104.518 129.518 104.979 129.266 105.556L125.575 114.005C125.051 115.204 123.349 115.204 122.825 114.005L119.134 105.556C118.882 104.979 118.421 104.518 117.844 104.266L109.395 100.575C108.196 100.051 108.196 98.3494 109.395 97.8255L117.844 94.1341C118.421 93.8819 118.882 93.4212 119.134 92.8441L122.825 84.395Z" fill="white" stroke="black"/>
<path d="M30.8255 53.395C31.3494 52.1957 33.0506 52.1957 33.5745 53.395L37.2659 61.8441C37.5181 62.4212 37.9788 62.8819 38.5559 63.1341L47.005 66.8255C48.2043 67.3494 48.2043 69.0506 47.005 69.5745L38.5559 73.2659C37.9788 73.5181 37.5181 73.9788 37.2659 74.5559L33.5745 83.005C33.0506 84.2043 31.3494 84.2043 30.8255 83.005L27.1341 74.5559C26.8819 73.9788 26.4212 73.5181 25.8441 73.2659L17.395 69.5745C16.1957 69.0506 16.1957 67.3494 17.395 66.8255L25.8441 63.1341C26.4212 62.8819 26.8819 62.4212 27.1341 61.8441L30.8255 53.395Z" fill="white" stroke="black"/>
</g>
<defs>
<clipPath id="clip0_1103_2355">
<rect width="160" height="160" fill="white" transform="translate(0.5)"/>
</clipPath>
</defs>
</svg>
